<?xml version="1.0" encoding="UTF-8" standalone="no"?>
<svg viewBox="0 0 4152.8218 4000.8098" xmlns="http://www.w3.org/2000/svg" xmlns:inkscape="http://www.inkscape.org/namespaces/inkscape">
<defs>
<inkscape:path-effect/>
<inkscape:path-effect/>
<inkscape:path-effect/>
<inkscape:path-effect/>
<inkscape:path-effect/>
<inkscape:path-effect/>
<inkscape:path-effect/>
<inkscape:path-effect/>
<inkscape:path-effect/>
<inkscape:path-effect/>
<inkscape:path-effect/>
<inkscape:path-effect/>
<inkscape:path-effect/>
<inkscape:path-effect/>
<inkscape:path-effect/>
<inkscape:path-effect/>
<inkscape:path-effect/>
<linearGradient>
<stop offset="0" stop-color="#a0cbff"/>
<stop offset=".25" stop-color="#84a5cc" stop-opacity=".74902"/>
<stop offset=".5" stop-color="#697f99" stop-opacity=".49804"/>
<stop offset="1" stop-color="#333" stop-opacity="0"/>
</linearGradient>
</defs>
<g transform="translate(758.31612,3819.95594)">
<path d="m-336.98958-888.88577c-160.98065-1063.49703 707.65893-1432.46593 1702.00298-674.49683 263.429,200.8068 532.6213,348.1043 877.9794,413.2154 240.216,45.2884 532.827,183.94663 830.7943,109.9996 127.8312-31.7241-809.667-1192.1463-859.9662-1071.4643-141.3085,339.039 158.1841,1015.5198-188.3958,1289.7289-732.0293,579.171-2245.97311,570.937-2362.41468-66.98277z" fill="#98c9ff"/>
<path d="m356.58384,4397.4438c0,15.3421-11.53265,27.7792-25.75889,27.7792s-25.75889-12.4371-25.75889-27.7792 11.53265-27.7791 25.75889-27.7791 25.75889,12.4371 25.75889,27.7791z" transform="matrix(1.58678,0,0,1.47138,-374.95274,-7871.0221)"/>
<path d="m-339.52905-968.98278c.3745-.0621.95622,1.23649 1.76733,3.73492s1.84861,6.20155 3.25171,10.89847 3.16688,10.39277 5.611,16.7487 5.56509,13.37489 9.92863,20.52806c3.22023,5.28898 7.10923,10.61774 12.00878,15.27963l1e-005,1e-005c3.78699,3.60619 8.18475,6.83883 13.14097,9.17445 4.31018,2.04465 9.09696,3.43633 14.09415,4.02045 4.83638.57314 9.92125.37946 15.04105-.45784 5.14974-.82983 10.30273-2.32609 15.40678-4.36047s10.1591-4.60636 15.10592-7.54145l1.30037-.78125c11.67552-7.14155 21.90074-15.92243 30.84561-25.08502 10.42898-10.69973 19.02678-21.95318 25.90451-32.84123 4.06268-6.44219 7.53477-12.74575 10.40539-18.76579s5.14151-11.75658 6.90579-17.0703c1.72162-5.21476 2.97181-10.01916 3.83316-14.25766s1.34073-7.9137 1.63495-10.9264 .41093-5.365.55089-6.9757 .30999-2.481.60461-2.518 .70234.7627 1.12709,2.3645 .86018,4.0082 1.09367,7.1625 .25748,7.059-.15107,11.5964-1.25676,9.70964-2.66673,15.30086c-1.42815,5.70221-3.42186,11.87952-6.08251,18.35577s-5.99006,13.25092-9.98267,20.13113c-6.74695,11.64537-15.44103,23.69729-26.20896,35.1204-9.21536,9.79094-20.01906,19.2082-32.58636,26.93294-.46315.28618-.92916.57005-1.39802.85142-5.32852,3.19781-10.89056,5.99004-16.60473,8.20049s-11.58026,3.83865-17.51603,4.75685c-5.94604.90762-11.95413,1.01319-17.76903.22138-6.02981-.82897-11.75797-2.65689-16.90892-5.2752-5.89951-3.01467-10.93931-6.96616-15.12778-11.29387l-1e-005-1e-005c-5.39123-5.57529-9.43873-11.65345-12.5983-17.55915-4.23931-7.94231-7.05013-15.54274-9.06608-22.34385s-3.23464-12.80723-4.03053-17.74451-1.16432-8.81117-1.27608-11.45575 .0369-4.06378.41144-4.12588z" fill="#333" fill-rule="evenodd" stroke="#333" stroke-width="3.22329"/>
<path d="m172.74771-1318.6835c-.0987.3626-1.40543.3967-3.79671.07s-5.86946-1.0149-10.26436-2.2091-9.70986-2.8945-15.6836-5.3623-12.60874-5.704-19.50776-10.0867c-5.10915-3.243-10.35146-7.1578-15.37387-11.8892s-9.82442-10.2802-13.93225-16.7693c-2.95506-4.6835-5.49056-9.8492-7.40865-15.3976s-3.2183-11.4793-3.69107-17.6473c-.69381-9.2962.53061-18.9912 3.79735-28.2169 .47372-1.3379.98726-2.6575 1.53924-3.9566 4.44307-10.4376 11.27694-19.4172 19.31827-26.3209 9.29148-7.9652 20.03498-13.1102 30.56815-15.8065 7.05498-1.7971 13.96727-2.5343 20.48404-2.556s12.63842.6712 18.21449,1.7726c7.24659,1.4336 13.57512,3.4949 18.96624,5.6642s9.84735,4.4477 13.38014,6.4797 6.14479,3.8197 7.83915,5.1466 2.47327,2.1939 2.2948,2.4994-1.30558.035-3.30083-.695-4.86141-1.9214-8.55714-3.3548-8.22353-3.1107-13.54116-4.6883-11.42684-3.0565-18.25241-3.9407h-1e-005c-5.23854-.6797-10.90638-1.0049-16.83825-.7142s-12.12789,1.1976-18.33016,3.022c-9.25577,2.7093-18.60271,7.4665-26.53118,14.5094-6.87427,6.0961-12.72782,13.9241-16.51078,22.8852-.47092,1.1131-.91005,2.2443-1.31621,3.3915-2.80085,7.9109-3.90982,16.238-3.4033,24.1961 .64677,10.553 4.16471,20.5244 9.1198,28.9367 3.44103,5.8637 7.59717,11.0062 12.01233,15.5111s9.08885,8.3726 13.67936,11.6976c6.22,4.5005 12.29827,8.0186 17.80956,10.8802s10.45747,5.0661 14.54392,6.8304 7.31627,3.0878 9.48687,4.0856 3.28467,1.6707 3.18599,2.0333z" fill-rule="evenodd"/>
<path d="m167.59054-1461.4422c.0572-.3462.93963-.5571 2.58198-.5839s4.04716.1308 7.11185.6282 6.79285,1.335 10.99662,2.7734 8.88617,3.4786 13.7231,6.4825c3.75282,2.3421 7.54515,5.2881 11.10221,8.9099s6.87838,7.9204 9.61614,12.8976c2.15334,3.94 3.92414,8.253 5.21201,12.8437s2.09257,9.4588 2.3303,14.4659c.42481,8.8591-.86603,18.1445-4.00409,27.0597l-.23706.6632c-3.25449,9.0025-8.25322,17.1226-14.43275,23.6912-3.3456,3.5576-7.05217,6.6319-10.95758,9.1619s-8.00927,4.5157-12.16684,5.943c-5.30173,1.7948-10.57955,2.641-15.5698,2.8142s-9.6933-.3254-13.95401-1.2351h-1e-005c-5.64311-1.2165-10.4839-3.0389-14.55436-4.9584s-7.37301-3.9381-9.95729-5.7321-4.45259-3.3665-5.63631-4.537-1.68452-1.9413-1.48511-2.2332 1.08968-.092 2.61319.5029 3.68291,1.5848 6.45489,2.7848 6.15865,2.6127 10.1348,3.9239 8.54307,2.5231 13.6481,3.1507h1e-005c3.81777.4764 7.94733.6106 12.22687.2033s8.7092-1.3565 13.02931-3.0636c3.41382-1.3282 6.78015-3.1243 9.99118-5.3624s6.26664-4.9178 9.03896-7.9726c5.14885-5.6756 9.34693-12.7027 12.175-20.488 .0691-.1909.13727-.3823.20465-.5742 2.71111-7.7184 3.91685-15.729 3.69379-23.3593-.12779-4.2959-.70638-8.4848-1.67856-12.4457s-2.33797-7.6937-4.02909-11.117c-2.11591-4.319-4.77268-8.1609-7.66909-11.4966s-6.03241-6.1657-9.17343-8.5222c-4.05995-3.0601-8.12603-5.3497-11.83932-7.1584s-7.07626-3.136-9.86002-4.1864-4.9918-1.824-6.47949-2.443-2.25793-1.0847-2.20075-1.4309z" fill-rule="evenodd" stroke="#000"/>
<path d="m1876.1027,2594.2856c0,4.765-41.7475,8.6278-93.2455,8.6278s-93.2455-3.8628-93.2455-8.6278c0-4.7649 41.7474-8.6277 93.2455-8.6277s93.2455,3.8628 93.2455,8.6277z" fill="#b6c7e2" transform="matrix(.44161,.1784,-.77428,.42966,2483.7371,-3043.1893)"/>
<path d="m801.34551-1905.5326c-.66086-.01-1.03622-20.1396-1.19104-56.6899-.0774-18.2751-.10169-40.6545-.177-66.6716s-.19795-55.6719-.61633-88.4959c-.39114-30.6636-1.02213-64.0978-2.27401-99.8926s-3.12474-73.9498-6.18281-114.0332c-1.67908-21.9973-2.90911-44.6631-3.39217-67.8989s-.21875-47.0418 1.14008-71.3051c1.94378-34.7945 6.09948-70.6523 14.85226-106.4484 6.36943-26.0908 15.26596-52.2944 28.69833-76.7833 5.00975-9.1439 10.70952-18.0458 17.1907-26.4252 6.64164-8.5867 14.04356-16.543 22.25793-23.6009 7.03078-6.0276 14.64745-11.3483 22.74399-15.7685 7.68671-4.1942 15.78735-7.5545 24.12524-10.0008 16.47414-4.8181 33.6864-5.988 50.302-4.1437 17.51657,1.9479 34.31992,7.0584 49.83382,14.1688 16.8155,7.7006 32.2016,17.6956 45.9972,29.072 14.8006,12.1992 27.8235,26.0073 38.9459,40.7867 11.7105,15.5552 21.3255,32.2227 28.6163,49.4418 7.612,17.9714 12.6561,36.5718 14.9004,55.0582 2.3901,19.7018 1.5247,39.2268-2.2999,57.5313-4.3729,20.8787-12.5539,40.0021-22.9294,56.6292-6.6256,10.6088-14.0937,20.2027-21.9998,28.8804s-16.2506,16.4391-24.7109,23.3865c-12.5134,10.2767-25.2427,18.8365-37.6465,26.1392s-24.4841,13.3476-35.874,18.4845c-15.81935,7.1367-30.33343,12.5563-43.1015,16.8409s-23.79403,7.4305-32.78079,9.7922-15.93777,3.936-20.64346,4.9001-7.16806,1.3166-7.2229,1.0914 2.29959-1.0213 6.88641-2.4167 11.40827-3.3889 20.23983-6.1494 19.67682-6.2851 32.21905-10.9142 26.78532-10.3593 42.26376-17.753c11.1419-5.3238 22.9343-11.5152 34.9965-18.9012s24.3959-15.9658 36.4448-26.1726h.0001c8.1396-6.8959 16.1441-14.5477 23.692-23.0415s14.6393-17.8294 20.8715-28.0889c9.763-16.0581 17.4005-34.4283 21.3654-54.3283 3.4861-17.4505 4.1417-36.0732 1.7241-54.8471-2.2687-17.6302-7.2337-35.4004-14.6384-52.6013-7.099-16.4849-16.438-32.4506-27.7768-47.3594-10.7756-14.1631-23.351-27.3768-37.5931-39.0164-13.2804-10.8482-27.9984-20.3471-43.9795-27.5937-14.73948-6.6778-30.56026-11.4668-46.87225-13.2198-15.43538-1.6622-31.35502-.5715-46.42508,3.8843-7.64335,2.2521-15.08465,5.3504-22.14982,9.213-7.44573,4.0683-14.48674,9.0002-21.02071,14.6019-7.65482,6.547-14.58491,14.0119-20.84661,22.129-6.11041,7.921-11.53023,16.3894-16.34892,25.1248-12.91659,23.4436-21.53388,48.8334-27.84186,74.332-8.64123,34.9871-12.81107,70.2505-14.87564,104.6417-1.43604,23.9773-1.79979,47.5426-1.43611,70.5794s1.45437,45.5452 2.97672,67.4212c2.80467,40.2612 4.3765,78.5485 5.28608,114.4404s1.15702,69.3886 1.12981,100.0926c-.0288,32.8698-.39187,62.5469-.83489,88.5746s-.96968,48.406-1.46993,66.6768c-1.00048,36.5415-1.88722,56.6544-2.54808,56.6466z" fill="#98c9ff" stroke="#98c9ff" stroke-width="7.74151"/>
<path d="m804.20036-1926.518c-.52688-.028-.0989-16.5061.8771-47.0316 .488-15.2627 1.10456-34.038 1.74493-56.026s1.30489-47.189 1.84795-75.2992 .96489-59.1298 1.07521-92.749-.0909-69.8381-.83972-108.3387c-1.49763-77.0011-5.15196-163.1377-13.33399-255.762-3.23099-36.5792-7.19778-74.159-12.22226-112.502s-11.10752-77.4488-18.61288-117.0618c-8.3805-44.2234-18.49549-89.0944-31.37028-133.9024-4.22973-14.7207-8.71448-29.2802-13.47369-43.658-7.60284-22.9612-15.8918-45.4668-25.06279-67.2888s-19.2243-42.9602-30.31587-63.2185c-8.89505-16.2379-18.44781-31.9228-28.79279-46.7553s-21.4823-28.8125-33.51793-41.685c-9.77475-10.4487-20.1492-20.1695-31.09189-28.8518s-22.4536-16.3261-34.49757-22.6668c-20.76606-10.9407-43.12426-17.9076-65.44585-19.9558-21.34125-1.9769-42.61711.4917-62.28935,6.4295-20.56048,6.1996-39.4197,16.1107-56.01037,28.0973-18.04402,13.0398-33.4438,28.5428-46.21672,45.0961-14.02696,18.1839-24.88884,37.6585-32.79321,57.2557-8.76408,21.7351-13.87883,43.6317-15.80512,64.5042-1.1129,12.0575-1.16058,23.7868-.32049,34.9916s2.56766,21.8858 4.99295,31.9217c3.16358,13.1039 7.51893,25.0926 12.47434,35.8796s10.51188,20.3753 16.19664,28.8041c7.2847,10.8057 14.74517,19.717 21.59937,27.0907s13.10923,13.212 18.28282,17.7986 9.27132,7.9238 12.0141,10.1855 4.13343,3.4501 4.03123,3.5928-1.695-.7638-4.65341-2.7596-7.28533-5.083-12.71467-9.4528-11.96675-10.0244-19.13973-17.2736-14.98866-16.0957-22.67119-26.9331c-5.99337-8.4581-11.87229-18.1306-17.15033-29.0721s-9.95616-23.155-13.42322-36.5715c-2.65237-10.2729-4.59244-21.2257-5.61819-32.7355s-1.13686-23.5774-.14185-36.0038c1.72192-21.5024 6.72389-44.0964 15.52444-66.5588 7.932-20.2515 18.9324-40.4171 33.24847-59.3025 13.03202-17.1965 28.84156-33.3551 47.48699-47.0421 17.14908-12.5916 36.75997-23.0503 58.30559-29.706 20.64209-6.3705 43.01511-9.0889 65.58874-7.1237 23.60557,2.0745 47.14765,9.2613 68.94446,20.6563 12.6154,6.5998 24.64149,14.5119 36.03302,23.4705s22.1485,18.9637 32.23008,29.7034c12.41077,13.2139 23.87764,27.5188 34.49891,42.6542s20.39704,31.1012 29.45516,47.5934c11.30409,20.5709 21.53901,42.0011 30.85628,64.0889s17.71717,44.8327 25.39217,68.0023c4.80773,14.5092 9.33453,29.1954 13.59951,44.0376 12.98209,45.1778 23.13755,90.3573 31.49596,134.8262 7.48899,39.8356 13.52331,79.1394 18.46886,117.655s8.80323,76.243 11.89781,112.9462c7.83424,92.926 10.99723,179.2868 11.88817,256.4408 .44547,38.577.31457,74.8549-.15307,108.5184s-1.27197,64.7128-2.21922,92.841-2.0376,53.3356-3.12214,75.3215-2.1636,40.7508-3.12928,55.9973c-1.93136,30.493-3.37531,46.9159-3.90219,46.8874z" fill="#98c9ff" stroke="#98c9ff" stroke-width="10"/>
<path d="m804.60647-1931.3215c-.43682.045-2.34693-13.9275-5.2291-40.2492s-6.72978-64.9981-10.49829-114.3804-7.45414-109.4757-9.53857-178.568-2.5603-147.1869.48588-232.4426c2.98929-83.6909 9.40481-174.3351 21.41614-269.6497s29.63927-195.2919 55.09865-297.2894c8.36287-33.5091 17.7351-67.2294 28.63363-100.8284 6.80913-20.9918 14.13417-41.6815 22.06032-61.9998 15.93317-40.8613 34.34736-80.3479 56.98749-116.6157 17.34495-27.8117 37.34678-53.8745 61.28048-75.4019 9.8535-8.8554 20.4062-16.8961 31.6605-23.7349 10.1335-6.1576 20.8473-11.3101 31.9909-15.1492 10.3927-3.5781 21.1382-5.9814 31.9752-7.0868 10.5572-1.0737 21.1597-.9098 31.5463.3971 10.544,1.3287 20.8377,3.8135 30.7131,7.2148 10.3273,3.5572 20.1956,8.0911 29.5469,13.321 20.5363,11.495 38.6161,26.1816 54.5514,42.1946 18.0825,18.1594 33.5349,38.074 46.8959,58.5965 14.8194,22.7558 27.1039,46.3206 37.2451,69.9904 10.9217,25.4864 19.3635,51.1371 25.4919,76.4358 6.423,26.5062 10.2965,52.6644 11.5673,77.9375 1.3103,25.9883-.1735,51.0816-4.5879,74.4818-2.2831,12.1127-5.3717,23.7831-9.2292,34.8312s-8.4835,21.4743-13.8101,31.1606c-5.9262,10.7707-12.7447,20.5692-20.1344,29.2949s-15.3507,16.3797-23.609,22.9507c-9.8965,7.8698-20.1471,14.1964-30.2457,19.269-12.4789,6.2674-24.6997,10.6439-36.1037,13.8114-14.2489,3.9543-27.1914,6.0669-38.4553,7.3113s-20.8566,1.612-28.5957,1.6812-13.6308-.1664-17.5807-.4084-5.9616-.4933-5.9557-.6594 2.0294-.2434 5.9755-.3263 9.8189-.1687 17.5039-.551 17.1888-1.0548 28.2999-2.583 23.8373-3.9038 37.7659-8.0772c11.1453-3.3367 23.0447-7.8388 35.1195-14.1532 9.7707-5.1089 19.655-11.4168 29.148-19.1874 7.9182-6.4777 15.5343-13.9986 22.5875-22.5444s13.5437-18.1172 19.1662-28.6061c5.0644-9.4418 9.4432-19.609 13.0794-30.3891s6.5294-22.1737 8.6547-34.0065c4.1045-22.8719 5.332-47.4258 3.8578-72.9133-1.437-24.7862-5.433-50.4496-11.9187-76.4814-6.192-24.8442-14.6503-50.0205-25.5301-75.0235-10.1059-23.22-22.2859-46.2966-36.9165-68.5254-13.1977-20.0458-28.3625-39.4274-46.0095-56.9921-15.5601-15.4779-33.0353-29.5942-52.7019-40.4833-8.9444-4.9567-18.3275-9.2351-28.0864-12.5564-9.3277-3.1748-19.0044-5.4837-28.8586-6.691-9.7024-1.1907-19.5944-1.3169-29.4144-.2892-10.081,1.0518-20.1086,3.3258-29.825,6.6945-10.4255,3.6121-20.5065,8.498-30.0992,14.3476-10.6596,6.5-20.7131,14.2038-30.1701,22.7253-23.0226,20.7273-42.38378,46.1136-59.40408,73.4007-22.18262,35.5978-40.28136,74.5413-56.06492,115.0163-7.84381,20.1231-15.09951,40.6311-21.85312,61.4565-10.80968,33.3325-20.13027,66.8303-28.47722,100.1604-25.42654,101.5463-43.15658,201.1071-55.38914,296.0674s-18.98793,185.3117-22.4111,268.7765c-3.48622,85.0267-3.53849,162.9576-2.05178,231.9447s4.50517,129.0331 7.55417,178.4108 6.12483,88.0922 8.19734,114.476 3.13504,40.4424 2.69822,40.4871z" fill="#98c9ff" stroke="#98c9ff" stroke-width="10"/>
<path d="m1977.1429,1497.1429c.8323.3254.34,3.7705-.9509,9.5476-.6455,2.8885-1.483,6.3617-2.385,10.3301s-1.8686,8.4317-2.7205,13.3089c-.5377,3.1318-1.0583,6.4051-1.4013,9.7614s-.5079,6.7949-.2754,10.2578c.1399,1.9972.3611,3.8948.8745,5.5766 .3921,1.1498.7153,2.085 1.1676,2.5534 .2822.2256.3634.4024.171.2291-.1561.01-.2031-.016-.1811-.037 .016-.015.067-.029.1372-.032 .3583-.071.8611-.53 1.5243-1.1192 .8436-.8161 1.5873-1.9145 2.3132-3.1422 2.1281-3.6179 3.264-7.8759 4.0546-12.1115 1.1516-6.2315 1.2398-12.2.9095-17.5949s-1.0767-10.2153-1.7741-14.2351-1.3481-7.2427-1.6637-9.5097-.2982-3.5845.2001-3.783 1.4433.7366 2.6937,2.7156 2.8089,5.0075 4.3508,9.0215 3.0681,9.0199 4.0398,14.8833 1.3839,12.5883.5123,19.8881c-.5852,4.9653-1.8918,10.3478-4.6852,15.5471-.9601,1.7929-2.2077,3.6136-3.8436,5.3165-1.2001,1.3038-2.8561,2.5374-5.009,3.4424-.7612.3206-1.5862.5379-2.46.6393-1.2212.1418-2.5302.056-3.8825-.2818-2.3984-.8079-4.1729-2.1513-5.2822-3.7162-1.5094-2.0557-2.3751-4.1322-2.829-6.0018-.7263-2.7438-1.0011-5.3804-1.0543-7.8259-.1002-4.191.258-8.1618.8444-11.8816s1.4002-7.1889 2.2684-10.3962c1.35-5.0512 2.8776-9.5671 4.3911-13.4945s3.0127-7.267 4.3604-9.9623c2.6953-5.3907 4.7526-8.2189 5.5849-7.8935z" fill="#98c9ff" fill-rule="evenodd" stroke="#98c9ff" transform="translate(-927.54775,-4376.774)"/>
<path d="m479.09019-2595.6546c.31529.3137-1.11316,2.3515-4.04363,5.9164s-7.36405,8.6571-12.99864,15.1316-12.47141,14.3307-20.12867,23.4795-16.13483,19.59-24.96163,31.293c-5.80847,7.709-11.80697,15.9301-17.63573,24.7284s-11.48632,18.1741-16.50479,28.2412c-2.95328,5.931-5.66828,12.0248-7.62972,18.36-1.29233,4.2719-2.34578,8.4644-2.3528,12.4876-.00077,1.3865.076,2.6622.35956,3.7574 .23515.8525.48378,1.5707.83095,2.0169 .25956.362.57522.6747.88321.8287 .0869.058.19015.1087.30724.1537 .3085.1185.7119.196 1.16125.2543 .77471.095 1.71436-.024 2.7602-.2251h1e-005c1.28896-.2634 2.62464-.7491 4.00266-1.3449 3.72513-1.611 7.22964-4.0412 10.66043-6.7278 4.68383-3.6986 8.95312-7.9071 12.97024-12.302 5.23925-5.7399 9.95604-11.7879 14.29872-17.9039 6.36782-8.9663 11.89112-18.0366 16.7652-26.9171s9.09948-17.5707 12.83232-25.8303c5.0205-11.1146 9.12095-21.4619 12.53011-30.6839s6.12809-17.3193 8.32446-23.9848 3.87107-11.9001 5.11652-15.4384 2.06321-5.381 2.45253-5.2905 .32902,2.1096-.19584,5.8401-1.51569,9.1732-3.08295,16.0787-3.71193,15.2749-6.62256,24.8134-6.58854,20.2469-11.2835,31.7718v.0001c-3.48528,8.5605-7.53098,17.5892-12.31226,26.8527s-10.29897,18.7613-16.76205,28.1995c-4.4127,6.4427-9.2941,12.8682-14.80513,19.0405-4.20948,4.7209-8.83114,9.3325-14.04248,13.5163-3.75708,3.0393-7.97013,5.9246-12.80882,8.0975-1.81719.816-3.80044,1.5159-5.94928,1.9871h-2e-005c-1.74328.3947-3.68192.5753-5.7613.4085-1.2946-.1016-2.62633-.4063-3.94674-.9373-.50115-.2015-1.00011-.4354-1.49423-.7029-1.73719-.9911-3.16823-2.3234-4.23268-3.8844-1.17776-1.7687-1.91768-3.5952-2.30984-5.3446-.50539-2.1772-.66958-4.2773-.62457-6.2359 .12375-5.5317 1.35308-10.6593 2.87504-15.3277 2.2529-7.0527 5.22496-13.612 8.40321-19.7827 5.38299-10.4618 11.389-20.0874 17.55116-29.0093s12.47924-17.1413 18.59875-24.7556c9.30851-11.5948 18.28856-21.8139 26.46557-30.6498s15.55121-16.2893 21.74133-22.2975 11.19752-10.5708 14.72073-13.5669 5.56317-4.4253 5.87846-4.1116z" fill="#98c9ff" fill-rule="evenodd" stroke="#98c9ff" stroke-width="8"/>
<path d="m1255.25-2471.766c.4568-.1512 1.5398,1.6512 3.174,5.1377s3.8182,8.6582 6.5284,15.2218 5.945,14.5199 9.7578,23.5361 8.2035,19.092 13.3164,29.8513c3.5908,7.5548 7.5195,15.4196 12.0702,23.2837 2.9961,5.1656 6.1791,10.2984 9.9044,15.0274 2.3559,2.9291 4.6474,5.6528 7.2941,7.4391 .8337.552 1.5483.9937 2.1593,1.1669 .4353.099.7062.19.725.1332-.035.019.01-.01.031-.024 .1123-.032.2906-.3204.5732-.7351v-.01c.8719-1.3085 1.1795-3.3726 1.5257-5.7404 .3828-3.3054.254-6.7611-.058-10.2729-.414-4.5021-1.2198-8.9499-2.2381-13.3107-2.6754-11.4405-6.8105-22.0137-11.5317-31.4801-3.2157-6.4349-6.7219-12.3444-10.3564-17.6721s-7.3967-10.0745-11.1147-14.2472c-4.2659-4.787-8.4803-8.8148-12.3513-12.1608s-7.3985-6.0145-10.3389-8.1348-5.2935-3.6976-6.8629-4.8428-2.3543-1.8632-2.211-2.1699 1.2098-.1876 3.098.4029 4.598,1.657 7.9518,3.3388 7.3518,3.9841 11.7407,7.0641 9.1686,6.9423 14.0115,11.6894c4.2138,4.1294 8.4832,8.9136 12.6062,14.3583s8.099,11.5508 11.7312,18.2543c5.3386,9.8344 10.0216,21.013 13.1028,33.3012 1.1771,4.6882 2.1164,9.5792 2.6339,14.6487 .4104,3.9152.5598,8.0477.1139,12.3193-.2342,2.9389-.9607,6.3058-2.8036,9.6746 0,.01-.01.012-.01.018-.7021,1.2767-1.7596,2.5517-3.2039,3.6916-1.3904,1.0479-3.0294,1.7173-4.8113,1.9531-1.9586.1887-3.6999-.055-5.1435-.5885-1.863-.6602-3.425-1.5395-4.711-2.4803-3.9316-2.8465-6.8925-6.2601-9.3525-9.5365-4.1033-5.3583-7.4588-10.9274-10.4521-16.3647-4.5848-8.3084-8.4134-16.5143-11.7982-24.335-4.8173-11.1287-8.7827-21.5427-12.0666-30.8748s-5.8864-17.5829-7.889-24.4347-3.4039-12.3058-4.2049-16.0798-1.0003-5.8688-.5435-6.02z" fill="#98c9ff" fill-rule="evenodd" stroke="#98c9ff"/>
<path d="m726.36813-3293.6663c-.38459.2291-2.45587-2.3811-5.95208-7.5192s-8.41935-12.804-14.39789-22.7447-13.0151-22.1565-20.58965-36.4517-15.68734-30.6707-23.64588-48.9807c-6.00076-13.8066-11.90832-28.7427-17.02922-44.8113h-1e-005c-3.63254-11.3894-6.89344-23.3955-9.09928-36.0223-1.54964-8.8151-2.60352-18.0511-2.31422-27.5789 .1533-6.3568 1.00666-13.1271 3.64423-19.7033 .97286-2.4111 2.29429-4.8164 4.064-7.0541 1.51064-1.91 3.40954-3.6195 5.67473-4.9589 2.14913-1.2433 4.51076-2.0416 6.94788-2.3621 .43577-.054.86985-.095 1.30173-.1229 2.1265-.1366 4.19116.044 6.13437.4673 5.82572,1.3132 10.78534,4.1524 14.90172,7.3794 5.76685,4.4261 10.57167,9.6523 14.73539,15.0468 5.52965,7.1346 10.11784,14.7055 14.06855,22.3389 5.04541,9.7377 9.10407,19.6463 12.46412,29.4437 4.82402,14.0724 8.26287,27.9373 10.73802,41.2535s3.98785,26.0832 4.89462,38.0425v.0001c1.21573,15.9985 1.34016,30.5863.93424,43.4181s-1.34066,23.9097-2.36925,32.9554-2.15017,16.0619-3.07263,20.8037-1.64405,7.2113-2.03349,7.1607-.42611-2.6182-.23483-7.4253 .60857-11.856.97164-20.8757 .67104-20.0126.50698-32.6779-.80145-27.0045-2.45117-42.6576c-1.23562-11.7052-3.01946-24.1518-5.68752-37.0695s-6.22129-26.3059-11.06434-39.8206c-3.36838-9.4037-7.34909-18.845-12.2171-28.0362-3.82317-7.2103-8.14523-14.258-13.25579-20.7627-3.88486-4.9226-8.10787-9.5352-12.96994-13.1995-3.55166-2.6097-7.1944-4.8329-10.92244-5.5345-1.18598-.2362-2.34658-.3541-3.42083-.2819-.21817.015-.4326.037-.6428.068-1.14728.1528-2.27067.5263-3.23325,1.0917-1.05085.5879-2.02795,1.4995-2.90504,2.5665-1.05218,1.2804-1.89779,2.8693-2.63164,4.6025-2.06849,4.8512-2.70278,10.479-2.96359,16.2423-.32887,8.565.61993,17.1545 2.00771,25.6074 1.99484,12.0674 5.02626,23.7034 8.41453,34.8817 4.77964,15.7555 10.3226,30.5284 15.93861,44.2874 7.45132,18.2565 15.01146,34.6973 21.99649,49.1508s13.39499,26.9198 18.71498,37.1728 9.5525,18.2928 12.33046,23.8397 4.10347,8.6014 3.71888,8.8305z" fill="#98c9ff" fill-rule="evenodd" stroke="#98c9ff" stroke-width="6"/>
</g>
</svg>
