<?xml version="1.0" encoding="UTF-8" standalone="no"?>
<!-- Created with Inkscape (http://www.inkscape.org/) -->

<svg
   xmlns:dc="http://purl.org/dc/elements/1.1/"
   xmlns:cc="http://creativecommons.org/ns#"
   xmlns:rdf="http://www.w3.org/1999/02/22-rdf-syntax-ns#"
   xmlns:svg="http://www.w3.org/2000/svg"
   xmlns="http://www.w3.org/2000/svg"
   xmlns:sodipodi="http://sodipodi.sourceforge.net/DTD/sodipodi-0.dtd"
   xmlns:inkscape="http://www.inkscape.org/namespaces/inkscape"
   version="1.1"
   width="100%"
   height="100%"
   viewBox="0 0 4152.8218 4000.8098"
   id="svg2"
   inkscape:version="0.48.5 r10040"
   sodipodi:docname="logo.svg">
  <sodipodi:namedview
     pagecolor="#ffffff"
     bordercolor="#666666"
     borderopacity="1"
     objecttolerance="10"
     gridtolerance="10"
     guidetolerance="10"
     inkscape:pageopacity="0"
     inkscape:pageshadow="2"
     inkscape:window-width="1280"
     inkscape:window-height="976"
     id="namedview65"
     showgrid="false"
     showguides="true"
     inkscape:guide-bbox="true"
     inkscape:zoom="0.23595223"
     inkscape:cx="2677.3962"
     inkscape:cy="1526.3644"
     inkscape:window-x="1366"
     inkscape:window-y="0"
     inkscape:window-maximized="1"
     inkscape:current-layer="surface1">
    <sodipodi:guide
       orientation="1,0"
       position="1474.4363,-110.88241"
       id="guide3060" />
    <sodipodi:guide
       orientation="0,1"
       position="1668.4805,770.18319"
       id="guide3062" />
  </sodipodi:namedview>
  <metadata
     id="metadata80">
    <rdf:RDF>
      <cc:Work
         rdf:about="">
        <dc:format>image/svg+xml</dc:format>
        <dc:type
           rdf:resource="http://purl.org/dc/dcmitype/StillImage" />
        <dc:title />
      </cc:Work>
    </rdf:RDF>
  </metadata>
  <defs
     id="defs4">
    <inkscape:path-effect
       id="path-effect6" />
    <inkscape:path-effect
       id="path-effect8" />
    <inkscape:path-effect
       id="path-effect10" />
    <inkscape:path-effect
       id="path-effect12" />
    <inkscape:path-effect
       id="path-effect14" />
    <inkscape:path-effect
       id="path-effect16" />
    <inkscape:path-effect
       id="path-effect18" />
    <inkscape:path-effect
       id="path-effect20" />
    <inkscape:path-effect
       id="path-effect22" />
    <inkscape:path-effect
       id="path-effect24" />
    <inkscape:path-effect
       id="path-effect26" />
    <inkscape:path-effect
       id="path-effect28" />
    <inkscape:path-effect
       id="path-effect30" />
    <inkscape:path-effect
       id="path-effect32" />
    <inkscape:path-effect
       id="path-effect34" />
    <inkscape:path-effect
       id="path-effect36" />
    <inkscape:path-effect
       id="path-effect38" />
    <linearGradient
       id="linearGradient40">
      <stop
         id="stop42"
         style="stop-color:#a0cbff;stop-opacity:1"
         offset="0" />
      <stop
         id="stop44"
         style="stop-color:#84a5cc;stop-opacity:0.74901998"
         offset="0.25" />
      <stop
         id="stop46"
         style="stop-color:#697f99;stop-opacity:0.49803999"
         offset="0.5" />
      <stop
         id="stop48"
         style="stop-color:#333333;stop-opacity:0"
         offset="1" />
    </linearGradient>
  </defs>
  <g
     transform="translate(436.21702,3659.3827)"
     id="g50">
    <path
       d="M -336.98958,-888.88577 C -497.97023,-1952.3828 370.66935,-2321.3517 1365.0134,-1563.3826 c 263.429,200.8068 532.6213,348.1043 877.9794,413.2154 240.216,45.2884 532.827,183.94663 830.7943,109.9996 127.8312,-31.7241 -809.667,-1192.1463 -859.9662,-1071.4643 -141.3085,339.039 158.1841,1015.5198 -188.3958,1289.7289 -732.0293,579.171 -2245.97311,570.937 -2362.41468,-66.98277 z"
       id="path52"
       style="fill:#98c9ff"
       inkscape:connector-curvature="0" />
    <path
       d="m 356.58384,4397.4438 c 0,15.3421 -11.53265,27.7792 -25.75889,27.7792 -14.22624,0 -25.75889,-12.4371 -25.75889,-27.7792 0,-15.3421 11.53265,-27.7791 25.75889,-27.7791 14.22624,0 25.75889,12.4371 25.75889,27.7791 z"
       transform="matrix(1.58678,0,0,1.47138,-374.95274,-7871.0221)"
       id="path54"
       inkscape:connector-curvature="0" />
    <path
       d="m -339.52905,-968.98278 c 0.3745,-0.0621 0.95622,1.23649 1.76733,3.73492 0.81111,2.49843 1.84861,6.20155 3.25171,10.89847 1.4031,4.69692 3.16688,10.39277 5.611,16.7487 2.44412,6.35593 5.56509,13.37489 9.92863,20.52806 3.22023,5.28898 7.10923,10.61774 12.00878,15.27963 l 10e-6,10e-6 c 3.78699,3.60619 8.18475,6.83883 13.14097,9.17445 4.31018,2.04465 9.09696,3.43633 14.09415,4.02045 4.83638,0.57314 9.92125,0.37946 15.04105,-0.45784 5.14974,-0.82983 10.30273,-2.32609 15.40678,-4.36047 5.10405,-2.03438 10.1591,-4.60636 15.10592,-7.54145 l 1.30037,-0.78125 c 11.67552,-7.14155 21.90074,-15.92243 30.84561,-25.08502 10.42898,-10.69973 19.02678,-21.95318 25.90451,-32.84123 4.06268,-6.44219 7.53477,-12.74575 10.40539,-18.76579 2.87062,-6.02004 5.14151,-11.75658 6.90579,-17.0703 1.72162,-5.21476 2.97181,-10.01916 3.83316,-14.25766 0.86135,-4.2385 1.34073,-7.9137 1.63495,-10.9264 0.29422,-3.0127 0.41093,-5.365 0.55089,-6.9757 0.13996,-1.6107 0.30999,-2.481 0.60461,-2.518 0.29462,-0.037 0.70234,0.7627 1.12709,2.3645 0.42475,1.6018 0.86018,4.0082 1.09367,7.1625 0.23349,3.1543 0.25748,7.059 -0.15107,11.5964 -0.40855,4.5374 -1.25676,9.70964 -2.66673,15.30086 -1.42815,5.70221 -3.42186,11.87952 -6.08251,18.35577 -2.66065,6.47625 -5.99006,13.25092 -9.98267,20.13113 -6.74695,11.64537 -15.44103,23.69729 -26.20896,35.1204 -9.21536,9.79094 -20.01906,19.2082 -32.58636,26.93294 -0.46315,0.28618 -0.92916,0.57005 -1.39802,0.85142 -5.32852,3.19781 -10.89056,5.99004 -16.60473,8.20049 -5.71417,2.21045 -11.58026,3.83865 -17.51603,4.75685 -5.94604,0.90762 -11.95413,1.01319 -17.76903,0.22138 -6.02981,-0.82897 -11.75797,-2.65689 -16.90892,-5.2752 -5.89951,-3.01467 -10.93931,-6.96616 -15.12778,-11.29387 l -10e-6,-10e-6 c -5.39123,-5.57529 -9.43873,-11.65345 -12.5983,-17.55915 -4.23931,-7.94231 -7.05013,-15.54274 -9.06608,-22.34385 -2.01595,-6.80111 -3.23464,-12.80723 -4.03053,-17.74451 -0.79589,-4.93728 -1.16432,-8.81117 -1.27608,-11.45575 -0.11176,-2.64458 0.0369,-4.06378 0.41144,-4.12588 z"
       id="path56"
       style="fill:#333333;fill-rule:evenodd;stroke:#333333;stroke-width:3.22328997"
       inkscape:connector-curvature="0" />
    <path
       d="m 172.74771,-1318.6835 c -0.0987,0.3626 -1.40543,0.3967 -3.79671,0.07 -2.39128,-0.3267 -5.86946,-1.0149 -10.26436,-2.2091 -4.3949,-1.1942 -9.70986,-2.8945 -15.6836,-5.3623 -5.97374,-2.4678 -12.60874,-5.704 -19.50776,-10.0867 -5.10915,-3.243 -10.35146,-7.1578 -15.37387,-11.8892 -5.02241,-4.7314 -9.82442,-10.2802 -13.93225,-16.7693 -2.95506,-4.6835 -5.49056,-9.8492 -7.40865,-15.3976 -1.91809,-5.5484 -3.2183,-11.4793 -3.69107,-17.6473 -0.69381,-9.2962 0.53061,-18.9912 3.79735,-28.2169 0.47372,-1.3379 0.98726,-2.6575 1.53924,-3.9566 4.44307,-10.4376 11.27694,-19.4172 19.31827,-26.3209 9.29148,-7.9652 20.03498,-13.1102 30.56815,-15.8065 7.05498,-1.7971 13.96727,-2.5343 20.48404,-2.556 6.51677,-0.022 12.63842,0.6712 18.21449,1.7726 7.24659,1.4336 13.57512,3.4949 18.96624,5.6642 5.39112,2.1693 9.84735,4.4477 13.38014,6.4797 3.53279,2.032 6.14479,3.8197 7.83915,5.1466 1.69436,1.3269 2.47327,2.1939 2.2948,2.4994 -0.17847,0.3055 -1.30558,0.035 -3.30083,-0.695 -1.99525,-0.73 -4.86141,-1.9214 -8.55714,-3.3548 -3.69573,-1.4334 -8.22353,-3.1107 -13.54116,-4.6883 -5.31763,-1.5776 -11.42684,-3.0565 -18.25241,-3.9407 h -10e-6 c -5.23854,-0.6797 -10.90638,-1.0049 -16.83825,-0.7142 -5.93187,0.2907 -12.12789,1.1976 -18.33016,3.022 -9.25577,2.7093 -18.60271,7.4665 -26.53118,14.5094 -6.87427,6.0961 -12.72782,13.9241 -16.51078,22.8852 -0.47092,1.1131 -0.91005,2.2443 -1.31621,3.3915 -2.80085,7.9109 -3.90982,16.238 -3.4033,24.1961 0.64677,10.553 4.16471,20.5244 9.1198,28.9367 3.44103,5.8637 7.59717,11.0062 12.01233,15.5111 4.41516,4.5049 9.08885,8.3726 13.67936,11.6976 6.22,4.5005 12.29827,8.0186 17.80956,10.8802 5.51129,2.8616 10.45747,5.0661 14.54392,6.8304 4.08645,1.7643 7.31627,3.0878 9.48687,4.0856 2.1706,0.9978 3.28467,1.6707 3.18599,2.0333 z"
       id="path58"
       style="fill-rule:evenodd"
       inkscape:connector-curvature="0" />
    <path
       d="m 167.59054,-1461.4422 c 0.0572,-0.3462 0.93963,-0.5571 2.58198,-0.5839 1.64235,-0.027 4.04716,0.1308 7.11185,0.6282 3.06469,0.4974 6.79285,1.335 10.99662,2.7734 4.20377,1.4384 8.88617,3.4786 13.7231,6.4825 3.75282,2.3421 7.54515,5.2881 11.10221,8.9099 3.55706,3.6218 6.87838,7.9204 9.61614,12.8976 2.15334,3.94 3.92414,8.253 5.21201,12.8437 1.28787,4.5907 2.09257,9.4588 2.3303,14.4659 0.42481,8.8591 -0.86603,18.1445 -4.00409,27.0597 l -0.23706,0.6632 c -3.25449,9.0025 -8.25322,17.1226 -14.43275,23.6912 -3.3456,3.5576 -7.05217,6.6319 -10.95758,9.1619 -3.90541,2.53 -8.00927,4.5157 -12.16684,5.943 -5.30173,1.7948 -10.57955,2.641 -15.5698,2.8142 -4.99025,0.1732 -9.6933,-0.3254 -13.95401,-1.2351 h -1e-5 c -5.64311,-1.2165 -10.4839,-3.0389 -14.55436,-4.9584 -4.07046,-1.9195 -7.37301,-3.9381 -9.95729,-5.7321 -2.58428,-1.794 -4.45259,-3.3665 -5.63631,-4.537 -1.18372,-1.1705 -1.68452,-1.9413 -1.48511,-2.2332 0.19941,-0.2919 1.08968,-0.092 2.61319,0.5029 1.52351,0.5949 3.68291,1.5848 6.45489,2.7848 2.77198,1.2 6.15865,2.6127 10.1348,3.9239 3.97615,1.3112 8.54307,2.5231 13.6481,3.1507 h 1e-5 c 3.81777,0.4764 7.94733,0.6106 12.22687,0.2033 4.27954,-0.4073 8.7092,-1.3565 13.02931,-3.0636 3.41382,-1.3282 6.78015,-3.1243 9.99118,-5.3624 3.21103,-2.2381 6.26664,-4.9178 9.03896,-7.9726 5.14885,-5.6756 9.34693,-12.7027 12.175,-20.488 0.0691,-0.1909 0.13727,-0.3823 0.20465,-0.5742 2.71111,-7.7184 3.91685,-15.729 3.69379,-23.3593 -0.12779,-4.2959 -0.70638,-8.4848 -1.67856,-12.4457 -0.97218,-3.9609 -2.33797,-7.6937 -4.02909,-11.117 -2.11591,-4.319 -4.77268,-8.1609 -7.66909,-11.4966 -2.89641,-3.3357 -6.03241,-6.1657 -9.17343,-8.5222 -4.05995,-3.0601 -8.12603,-5.3497 -11.83932,-7.1584 -3.71329,-1.8087 -7.07626,-3.136 -9.86002,-4.1864 -2.78376,-1.0504 -4.9918,-1.824 -6.47949,-2.443 -1.48769,-0.619 -2.25793,-1.0847 -2.20075,-1.4309 z"
       id="path60"
       style="fill-rule:evenodd;stroke:#000000"
       inkscape:connector-curvature="0" />
    <path
       d="m 1876.1027,2594.2856 c 0,4.765 -41.7475,8.6278 -93.2455,8.6278 -51.498,0 -93.2455,-3.8628 -93.2455,-8.6278 0,-4.7649 41.7474,-8.6277 93.2455,-8.6277 51.4981,0 93.2455,3.8628 93.2455,8.6277 z"
       transform="matrix(0.44161,0.1784,-0.77428,0.42966,2483.7371,-3043.1893)"
       id="path62"
       style="fill:#b6c7e2"
       inkscape:connector-curvature="0" />
    <path
       d="m 801.34551,-1905.5326 c -0.66086,-0.01 -1.03622,-20.1396 -1.19104,-56.6899 -0.0774,-18.2751 -0.10169,-40.6545 -0.177,-66.6716 -0.0753,-26.0171 -0.19795,-55.6719 -0.61633,-88.4959 -0.39114,-30.6636 -1.02213,-64.0978 -2.27401,-99.8926 -1.25188,-35.7948 -3.12474,-73.9498 -6.18281,-114.0332 -1.67908,-21.9973 -2.90911,-44.6631 -3.39217,-67.8989 -0.48306,-23.2358 -0.21875,-47.0418 1.14008,-71.3051 1.94378,-34.7945 6.09948,-70.6523 14.85226,-106.4484 6.36943,-26.0908 15.26596,-52.2944 28.69833,-76.7833 5.00975,-9.1439 10.70952,-18.0458 17.1907,-26.4252 6.64164,-8.5867 14.04356,-16.543 22.25793,-23.6009 7.03078,-6.0276 14.64745,-11.3483 22.74399,-15.7685 7.68671,-4.1942 15.78735,-7.5545 24.12524,-10.0008 16.47414,-4.8181 33.6864,-5.988 50.302,-4.1437 17.51657,1.9479 34.31992,7.0584 49.83382,14.1688 16.8155,7.7006 32.2016,17.6956 45.9972,29.072 14.8006,12.1992 27.8235,26.0073 38.9459,40.7867 11.7105,15.5552 21.3255,32.2227 28.6163,49.4418 7.612,17.9714 12.6561,36.5718 14.9004,55.0582 2.3901,19.7018 1.5247,39.2268 -2.2999,57.5313 -4.3729,20.8787 -12.5539,40.0021 -22.9294,56.6292 -6.6256,10.6088 -14.0937,20.2027 -21.9998,28.8804 -7.9061,8.6777 -16.2506,16.4391 -24.7109,23.3865 -12.5134,10.2767 -25.2427,18.8365 -37.6465,26.1392 -12.4038,7.3027 -24.4841,13.3476 -35.874,18.4845 -15.81935,7.1367 -30.33343,12.5563 -43.1015,16.8409 -12.76807,4.2846 -23.79403,7.4305 -32.78079,9.7922 -8.98676,2.3617 -15.93777,3.936 -20.64346,4.9001 -4.70569,0.9641 -7.16806,1.3166 -7.2229,1.0914 -0.0548,-0.2252 2.29959,-1.0213 6.88641,-2.4167 4.58682,-1.3954 11.40827,-3.3889 20.23983,-6.1494 8.83156,-2.7605 19.67682,-6.2851 32.21905,-10.9142 12.54223,-4.6291 26.78532,-10.3593 42.26376,-17.753 11.1419,-5.3238 22.9343,-11.5152 34.9965,-18.9012 12.0622,-7.386 24.3959,-15.9658 36.4448,-26.1726 h 10e-5 c 8.1396,-6.8959 16.1441,-14.5477 23.692,-23.0415 7.5479,-8.4938 14.6393,-17.8294 20.8715,-28.0889 9.763,-16.0581 17.4005,-34.4283 21.3654,-54.3283 3.4861,-17.4505 4.1417,-36.0732 1.7241,-54.8471 -2.2687,-17.6302 -7.2337,-35.4004 -14.6384,-52.6013 -7.099,-16.4849 -16.438,-32.4506 -27.7768,-47.3594 -10.7756,-14.1631 -23.351,-27.3768 -37.5931,-39.0164 -13.2804,-10.8482 -27.9984,-20.3471 -43.9795,-27.5937 -14.73948,-6.6778 -30.56026,-11.4668 -46.87225,-13.2198 -15.43538,-1.6622 -31.35502,-0.5715 -46.42508,3.8843 -7.64335,2.2521 -15.08465,5.3504 -22.14982,9.213 -7.44573,4.0683 -14.48674,9.0002 -21.02071,14.6019 -7.65482,6.547 -14.58491,14.0119 -20.84661,22.129 -6.11041,7.921 -11.53023,16.3894 -16.34892,25.1248 -12.91659,23.4436 -21.53388,48.8334 -27.84186,74.332 -8.64123,34.9871 -12.81107,70.2505 -14.87564,104.6417 -1.43604,23.9773 -1.79979,47.5426 -1.43611,70.5794 0.36368,23.0368 1.45437,45.5452 2.97672,67.4212 2.80467,40.2612 4.3765,78.5485 5.28608,114.4404 0.90958,35.8919 1.15702,69.3886 1.12981,100.0926 -0.0288,32.8698 -0.39187,62.5469 -0.83489,88.5746 -0.44302,26.0277 -0.96968,48.406 -1.46993,66.6768 -1.00048,36.5415 -1.88722,56.6544 -2.54808,56.6466 z"
       id="path64"
       style="fill:#98c9ff;stroke:#98c9ff;stroke-width:7.74150991"
       inkscape:connector-curvature="0" />
    <path
       d="m 804.20036,-1926.518 c -0.52688,-0.028 -0.0989,-16.5061 0.8771,-47.0316 0.488,-15.2627 1.10456,-34.038 1.74493,-56.026 0.64037,-21.988 1.30489,-47.189 1.84795,-75.2992 0.54306,-28.1102 0.96489,-59.1298 1.07521,-92.749 0.11032,-33.6192 -0.0909,-69.8381 -0.83972,-108.3387 -1.49763,-77.0011 -5.15196,-163.1377 -13.33399,-255.762 -3.23099,-36.5792 -7.19778,-74.159 -12.22226,-112.502 -5.02448,-38.343 -11.10752,-77.4488 -18.61288,-117.0618 -8.3805,-44.2234 -18.49549,-89.0944 -31.37028,-133.9024 -4.22973,-14.7207 -8.71448,-29.2802 -13.47369,-43.658 -7.60284,-22.9612 -15.8918,-45.4668 -25.06279,-67.2888 -9.17099,-21.822 -19.2243,-42.9602 -30.31587,-63.2185 -8.89505,-16.2379 -18.44781,-31.9228 -28.79279,-46.7553 -10.34498,-14.8325 -21.4823,-28.8125 -33.51793,-41.685 -9.77475,-10.4487 -20.1492,-20.1695 -31.09189,-28.8518 -10.94269,-8.6823 -22.4536,-16.3261 -34.49757,-22.6668 -20.76606,-10.9407 -43.12426,-17.9076 -65.44585,-19.9558 -21.34125,-1.9769 -42.61711,0.4917 -62.28935,6.4295 -20.56048,6.1996 -39.4197,16.1107 -56.01037,28.0973 -18.04402,13.0398 -33.4438,28.5428 -46.21672,45.0961 -14.02696,18.1839 -24.88884,37.6585 -32.79321,57.2557 -8.76408,21.7351 -13.87883,43.6317 -15.80512,64.5042 -1.1129,12.0575 -1.16058,23.7868 -0.32049,34.9916 0.84009,11.2048 2.56766,21.8858 4.99295,31.9217 3.16358,13.1039 7.51893,25.0926 12.47434,35.8796 4.95541,10.787 10.51188,20.3753 16.19664,28.8041 7.2847,10.8057 14.74517,19.717 21.59937,27.0907 6.8542,7.3737 13.10923,13.212 18.28282,17.7986 5.17359,4.5866 9.27132,7.9238 12.0141,10.1855 2.74278,2.2617 4.13343,3.4501 4.03123,3.5928 -0.1022,0.1427 -1.695,-0.7638 -4.65341,-2.7596 -2.95841,-1.9958 -7.28533,-5.083 -12.71467,-9.4528 -5.42934,-4.3698 -11.96675,-10.0244 -19.13973,-17.2736 -7.17298,-7.2492 -14.98866,-16.0957 -22.67119,-26.9331 -5.99337,-8.4581 -11.87229,-18.1306 -17.15033,-29.0721 -5.27804,-10.9415 -9.95616,-23.155 -13.42322,-36.5715 -2.65237,-10.2729 -4.59244,-21.2257 -5.61819,-32.7355 -1.02575,-11.5098 -1.13686,-23.5774 -0.14185,-36.0038 1.72192,-21.5024 6.72389,-44.0964 15.52444,-66.5588 7.932,-20.2515 18.9324,-40.4171 33.24847,-59.3025 13.03202,-17.1965 28.84156,-33.3551 47.48699,-47.0421 17.14908,-12.5916 36.75997,-23.0503 58.30559,-29.706 20.64209,-6.3705 43.01511,-9.0889 65.58874,-7.1237 23.60557,2.0745 47.14765,9.2613 68.94446,20.6563 12.6154,6.5998 24.64149,14.5119 36.03302,23.4705 11.39153,8.9586 22.1485,18.9637 32.23008,29.7034 12.41077,13.2139 23.87764,27.5188 34.49891,42.6542 10.62127,15.1354 20.39704,31.1012 29.45516,47.5934 11.30409,20.5709 21.53901,42.0011 30.85628,64.0889 9.31727,22.0878 17.71717,44.8327 25.39217,68.0023 4.80773,14.5092 9.33453,29.1954 13.59951,44.0376 12.98209,45.1778 23.13755,90.3573 31.49596,134.8262 7.48899,39.8356 13.52331,79.1394 18.46886,117.655 4.94555,38.5156 8.80323,76.243 11.89781,112.9462 7.83424,92.926 10.99723,179.2868 11.88817,256.4408 0.44547,38.577 0.31457,74.8549 -0.15307,108.5184 -0.46764,33.6635 -1.27197,64.7128 -2.21922,92.841 -0.94725,28.1282 -2.0376,53.3356 -3.12214,75.3215 -1.08454,21.9859 -2.1636,40.7508 -3.12928,55.9973 -1.93136,30.493 -3.37531,46.9159 -3.90219,46.8874 z"
       id="path66"
       style="fill:#98c9ff;stroke:#98c9ff;stroke-width:10"
       inkscape:connector-curvature="0" />
    <path
       d="m 804.60647,-1931.3215 c -0.43682,0.045 -2.34693,-13.9275 -5.2291,-40.2492 -2.88217,-26.3217 -6.72978,-64.9981 -10.49829,-114.3804 -3.76851,-49.3823 -7.45414,-109.4757 -9.53857,-178.568 -2.08443,-69.0923 -2.5603,-147.1869 0.48588,-232.4426 2.98929,-83.6909 9.40481,-174.3351 21.41614,-269.6497 12.01133,-95.3146 29.63927,-195.2919 55.09865,-297.2894 8.36287,-33.5091 17.7351,-67.2294 28.63363,-100.8284 6.80913,-20.9918 14.13417,-41.6815 22.06032,-61.9998 15.93317,-40.8613 34.34736,-80.3479 56.98749,-116.6157 17.34495,-27.8117 37.34678,-53.8745 61.28048,-75.4019 9.8535,-8.8554 20.4062,-16.8961 31.6605,-23.7349 10.1335,-6.1576 20.8473,-11.3101 31.9909,-15.1492 10.3927,-3.5781 21.1382,-5.9814 31.9752,-7.0868 10.5572,-1.0737 21.1597,-0.9098 31.5463,0.3971 10.544,1.3287 20.8377,3.8135 30.7131,7.2148 10.3273,3.5572 20.1956,8.0911 29.5469,13.321 20.5363,11.495 38.6161,26.1816 54.5514,42.1946 18.0825,18.1594 33.5349,38.074 46.8959,58.5965 14.8194,22.7558 27.1039,46.3206 37.2451,69.9904 10.9217,25.4864 19.3635,51.1371 25.4919,76.4358 6.423,26.5062 10.2965,52.6644 11.5673,77.9375 1.3103,25.9883 -0.1735,51.0816 -4.5879,74.4818 -2.2831,12.1127 -5.3717,23.7831 -9.2292,34.8312 -3.8575,11.0481 -8.4835,21.4743 -13.8101,31.1606 -5.9262,10.7707 -12.7447,20.5692 -20.1344,29.2949 -7.3897,8.7257 -15.3507,16.3797 -23.609,22.9507 -9.8965,7.8698 -20.1471,14.1964 -30.2457,19.269 -12.4789,6.2674 -24.6997,10.6439 -36.1037,13.8114 -14.2489,3.9543 -27.1914,6.0669 -38.4553,7.3113 -11.2639,1.2444 -20.8566,1.612 -28.5957,1.6812 -7.7391,0.069 -13.6308,-0.1664 -17.5807,-0.4084 -3.9499,-0.242 -5.9616,-0.4933 -5.9557,-0.6594 0.01,-0.1661 2.0294,-0.2434 5.9755,-0.3263 3.9461,-0.083 9.8189,-0.1687 17.5039,-0.551 7.685,-0.3823 17.1888,-1.0548 28.2999,-2.583 11.1111,-1.5282 23.8373,-3.9038 37.7659,-8.0772 11.1453,-3.3367 23.0447,-7.8388 35.1195,-14.1532 9.7707,-5.1089 19.655,-11.4168 29.148,-19.1874 7.9182,-6.4777 15.5343,-13.9986 22.5875,-22.5444 7.0532,-8.5458 13.5437,-18.1172 19.1662,-28.6061 5.0644,-9.4418 9.4432,-19.609 13.0794,-30.3891 3.6362,-10.7801 6.5294,-22.1737 8.6547,-34.0065 4.1045,-22.8719 5.332,-47.4258 3.8578,-72.9133 -1.437,-24.7862 -5.433,-50.4496 -11.9187,-76.4814 -6.192,-24.8442 -14.6503,-50.0205 -25.5301,-75.0235 -10.1059,-23.22 -22.2859,-46.2966 -36.9165,-68.5254 -13.1977,-20.0458 -28.3625,-39.4274 -46.0095,-56.9921 -15.5601,-15.4779 -33.0353,-29.5942 -52.7019,-40.4833 -8.9444,-4.9567 -18.3275,-9.2351 -28.0864,-12.5564 -9.3277,-3.1748 -19.0044,-5.4837 -28.8586,-6.691 -9.7024,-1.1907 -19.5944,-1.3169 -29.4144,-0.2892 -10.081,1.0518 -20.1086,3.3258 -29.825,6.6945 -10.4255,3.6121 -20.5065,8.498 -30.0992,14.3476 -10.6596,6.5 -20.7131,14.2038 -30.1701,22.7253 -23.0226,20.7273 -42.38378,46.1136 -59.40408,73.4007 -22.18262,35.5978 -40.28136,74.5413 -56.06492,115.0163 -7.84381,20.1231 -15.09951,40.6311 -21.85312,61.4565 -10.80968,33.3325 -20.13027,66.8303 -28.47722,100.1604 -25.42654,101.5463 -43.15658,201.1071 -55.38914,296.0674 -12.23256,94.9603 -18.98793,185.3117 -22.4111,268.7765 -3.48622,85.0267 -3.53849,162.9576 -2.05178,231.9447 1.48671,68.9871 4.50517,129.0331 7.55417,178.4108 3.049,49.3777 6.12483,88.0922 8.19734,114.476 2.07251,26.3838 3.13504,40.4424 2.69822,40.4871 z"
       id="path68"
       style="fill:#98c9ff;stroke:#98c9ff;stroke-width:10"
       inkscape:connector-curvature="0" />
    <path
       d="m 1977.1429,1497.1429 c 0.8323,0.3254 0.34,3.7705 -0.9509,9.5476 -0.6455,2.8885 -1.483,6.3617 -2.385,10.3301 -0.902,3.9684 -1.8686,8.4317 -2.7205,13.3089 -0.5377,3.1318 -1.0583,6.4051 -1.4013,9.7614 -0.343,3.3563 -0.5079,6.7949 -0.2754,10.2578 0.1399,1.9972 0.3611,3.8948 0.8745,5.5766 0.3921,1.1498 0.7153,2.085 1.1676,2.5534 0.2822,0.2256 0.3634,0.4024 0.171,0.2291 -0.1561,0.01 -0.2031,-0.016 -0.1811,-0.037 0.016,-0.015 0.067,-0.029 0.1372,-0.032 0.3583,-0.071 0.8611,-0.53 1.5243,-1.1192 0.8436,-0.8161 1.5873,-1.9145 2.3132,-3.1422 2.1281,-3.6179 3.264,-7.8759 4.0546,-12.1115 1.1516,-6.2315 1.2398,-12.2 0.9095,-17.5949 -0.3303,-5.3949 -1.0767,-10.2153 -1.7741,-14.2351 -0.6974,-4.0198 -1.3481,-7.2427 -1.6637,-9.5097 -0.3156,-2.267 -0.2982,-3.5845 0.2001,-3.783 0.4983,-0.1985 1.4433,0.7366 2.6937,2.7156 1.2504,1.979 2.8089,5.0075 4.3508,9.0215 1.5419,4.014 3.0681,9.0199 4.0398,14.8833 0.9717,5.8634 1.3839,12.5883 0.5123,19.8881 -0.5852,4.9653 -1.8918,10.3478 -4.6852,15.5471 -0.9601,1.7929 -2.2077,3.6136 -3.8436,5.3165 -1.2001,1.3038 -2.8561,2.5374 -5.009,3.4424 -0.7612,0.3206 -1.5862,0.5379 -2.46,0.6393 -1.2212,0.1418 -2.5302,0.056 -3.8825,-0.2818 -2.3984,-0.8079 -4.1729,-2.1513 -5.2822,-3.7162 -1.5094,-2.0557 -2.3751,-4.1322 -2.829,-6.0018 -0.7263,-2.7438 -1.0011,-5.3804 -1.0543,-7.8259 -0.1002,-4.191 0.258,-8.1618 0.8444,-11.8816 0.5864,-3.7198 1.4002,-7.1889 2.2684,-10.3962 1.35,-5.0512 2.8776,-9.5671 4.3911,-13.4945 1.5135,-3.9274 3.0127,-7.267 4.3604,-9.9623 2.6953,-5.3907 4.7526,-8.2189 5.5849,-7.8935 z"
       transform="translate(-927.54775,-4376.774)"
       id="path70"
       style="fill:#98c9ff;fill-rule:evenodd;stroke:#98c9ff"
       inkscape:connector-curvature="0" />
    <path
       d="m 479.09019,-2595.6546 c 0.31529,0.3137 -1.11316,2.3515 -4.04363,5.9164 -2.93047,3.5649 -7.36405,8.6571 -12.99864,15.1316 -5.63459,6.4745 -12.47141,14.3307 -20.12867,23.4795 -7.65726,9.1488 -16.13483,19.59 -24.96163,31.293 -5.80847,7.709 -11.80697,15.9301 -17.63573,24.7284 -5.82876,8.7983 -11.48632,18.1741 -16.50479,28.2412 -2.95328,5.931 -5.66828,12.0248 -7.62972,18.36 -1.29233,4.2719 -2.34578,8.4644 -2.3528,12.4876 -7.7e-4,1.3865 0.076,2.6622 0.35956,3.7574 0.23515,0.8525 0.48378,1.5707 0.83095,2.0169 0.25956,0.362 0.57522,0.6747 0.88321,0.8287 0.0869,0.058 0.19015,0.1087 0.30724,0.1537 0.3085,0.1185 0.7119,0.196 1.16125,0.2543 0.77471,0.095 1.71436,-0.024 2.7602,-0.2251 h 10e-6 c 1.28896,-0.2634 2.62464,-0.7491 4.00266,-1.3449 3.72513,-1.611 7.22964,-4.0412 10.66043,-6.7278 4.68383,-3.6986 8.95312,-7.9071 12.97024,-12.302 5.23925,-5.7399 9.95604,-11.7879 14.29872,-17.9039 6.36782,-8.9663 11.89112,-18.0366 16.7652,-26.9171 4.87408,-8.8805 9.09948,-17.5707 12.83232,-25.8303 5.0205,-11.1146 9.12095,-21.4619 12.53011,-30.6839 3.40916,-9.222 6.12809,-17.3193 8.32446,-23.9848 2.19637,-6.6655 3.87107,-11.9001 5.11652,-15.4384 1.24545,-3.5383 2.06321,-5.381 2.45253,-5.2905 0.38932,0.09 0.32902,2.1096 -0.19584,5.8401 -0.52486,3.7305 -1.51569,9.1732 -3.08295,16.0787 -1.56726,6.9055 -3.71193,15.2749 -6.62256,24.8134 -2.91063,9.5385 -6.58854,20.2469 -11.2835,31.7718 v 10e-5 c -3.48528,8.5605 -7.53098,17.5892 -12.31226,26.8527 -4.78128,9.2635 -10.29897,18.7613 -16.76205,28.1995 -4.4127,6.4427 -9.2941,12.8682 -14.80513,19.0405 -4.20948,4.7209 -8.83114,9.3325 -14.04248,13.5163 -3.75708,3.0393 -7.97013,5.9246 -12.80882,8.0975 -1.81719,0.816 -3.80044,1.5159 -5.94928,1.9871 h -2e-5 c -1.74328,0.3947 -3.68192,0.5753 -5.7613,0.4085 -1.2946,-0.1016 -2.62633,-0.4063 -3.94674,-0.9373 -0.50115,-0.2015 -1.00011,-0.4354 -1.49423,-0.7029 -1.73719,-0.9911 -3.16823,-2.3234 -4.23268,-3.8844 -1.17776,-1.7687 -1.91768,-3.5952 -2.30984,-5.3446 -0.50539,-2.1772 -0.66958,-4.2773 -0.62457,-6.2359 0.12375,-5.5317 1.35308,-10.6593 2.87504,-15.3277 2.2529,-7.0527 5.22496,-13.612 8.40321,-19.7827 5.38299,-10.4618 11.389,-20.0874 17.55116,-29.0093 6.16216,-8.9219 12.47924,-17.1413 18.59875,-24.7556 9.30851,-11.5948 18.28856,-21.8139 26.46557,-30.6498 8.17701,-8.8359 15.55121,-16.2893 21.74133,-22.2975 6.19012,-6.0082 11.19752,-10.5708 14.72073,-13.5669 3.52321,-2.9961 5.56317,-4.4253 5.87846,-4.1116 z"
       id="path72"
       style="fill:#98c9ff;fill-rule:evenodd;stroke:#98c9ff;stroke-width:8"
       inkscape:connector-curvature="0" />
    <path
       d="m 1255.25,-2471.766 c 0.4568,-0.1512 1.5398,1.6512 3.174,5.1377 1.6342,3.4865 3.8182,8.6582 6.5284,15.2218 2.7102,6.5636 5.945,14.5199 9.7578,23.5361 3.8128,9.0162 8.2035,19.092 13.3164,29.8513 3.5908,7.5548 7.5195,15.4196 12.0702,23.2837 2.9961,5.1656 6.1791,10.2984 9.9044,15.0274 2.3559,2.9291 4.6474,5.6528 7.2941,7.4391 0.8337,0.552 1.5483,0.9937 2.1593,1.1669 0.4353,0.099 0.7062,0.19 0.725,0.1332 -0.035,0.019 0.01,-0.01 0.031,-0.024 0.1123,-0.032 0.2906,-0.3204 0.5732,-0.7351 v -0.01 c 0.8719,-1.3085 1.1795,-3.3726 1.5257,-5.7404 0.3828,-3.3054 0.254,-6.7611 -0.058,-10.2729 -0.414,-4.5021 -1.2198,-8.9499 -2.2381,-13.3107 -2.6754,-11.4405 -6.8105,-22.0137 -11.5317,-31.4801 -3.2157,-6.4349 -6.7219,-12.3444 -10.3564,-17.6721 -3.6345,-5.3277 -7.3967,-10.0745 -11.1147,-14.2472 -4.2659,-4.787 -8.4803,-8.8148 -12.3513,-12.1608 -3.871,-3.346 -7.3985,-6.0145 -10.3389,-8.1348 -2.9404,-2.1203 -5.2935,-3.6976 -6.8629,-4.8428 -1.5694,-1.1452 -2.3543,-1.8632 -2.211,-2.1699 0.1433,-0.3067 1.2098,-0.1876 3.098,0.4029 1.8882,0.5905 4.598,1.657 7.9518,3.3388 3.3538,1.6818 7.3518,3.9841 11.7407,7.0641 4.3889,3.08 9.1686,6.9423 14.0115,11.6894 4.2138,4.1294 8.4832,8.9136 12.6062,14.3583 4.123,5.4447 8.099,11.5508 11.7312,18.2543 5.3386,9.8344 10.0216,21.013 13.1028,33.3012 1.1771,4.6882 2.1164,9.5792 2.6339,14.6487 0.4104,3.9152 0.5598,8.0477 0.1139,12.3193 -0.2342,2.9389 -0.9607,6.3058 -2.8036,9.6746 0,0.01 -0.01,0.012 -0.01,0.018 -0.7021,1.2767 -1.7596,2.5517 -3.2039,3.6916 -1.3904,1.0479 -3.0294,1.7173 -4.8113,1.9531 -1.9586,0.1887 -3.6999,-0.055 -5.1435,-0.5885 -1.863,-0.6602 -3.425,-1.5395 -4.711,-2.4803 -3.9316,-2.8465 -6.8925,-6.2601 -9.3525,-9.5365 -4.1033,-5.3583 -7.4588,-10.9274 -10.4521,-16.3647 -4.5848,-8.3084 -8.4134,-16.5143 -11.7982,-24.335 -4.8173,-11.1287 -8.7827,-21.5427 -12.0666,-30.8748 -3.2839,-9.3321 -5.8864,-17.5829 -7.889,-24.4347 -2.0026,-6.8518 -3.4039,-12.3058 -4.2049,-16.0798 -0.801,-3.774 -1.0003,-5.8688 -0.5435,-6.02 z"
       id="path74"
       style="fill:#98c9ff;fill-rule:evenodd;stroke:#98c9ff"
       inkscape:connector-curvature="0" />
    <path
       d="m 726.36813,-3293.6663 c -0.38459,0.2291 -2.45587,-2.3811 -5.95208,-7.5192 -3.49621,-5.1381 -8.41935,-12.804 -14.39789,-22.7447 -5.97854,-9.9407 -13.0151,-22.1565 -20.58965,-36.4517 -7.57455,-14.2952 -15.68734,-30.6707 -23.64588,-48.9807 -6.00076,-13.8066 -11.90832,-28.7427 -17.02922,-44.8113 h -10e-6 c -3.63254,-11.3894 -6.89344,-23.3955 -9.09928,-36.0223 -1.54964,-8.8151 -2.60352,-18.0511 -2.31422,-27.5789 0.1533,-6.3568 1.00666,-13.1271 3.64423,-19.7033 0.97286,-2.4111 2.29429,-4.8164 4.064,-7.0541 1.51064,-1.91 3.40954,-3.6195 5.67473,-4.9589 2.14913,-1.2433 4.51076,-2.0416 6.94788,-2.3621 0.43577,-0.054 0.86985,-0.095 1.30173,-0.1229 2.1265,-0.1366 4.19116,0.044 6.13437,0.4673 5.82572,1.3132 10.78534,4.1524 14.90172,7.3794 5.76685,4.4261 10.57167,9.6523 14.73539,15.0468 5.52965,7.1346 10.11784,14.7055 14.06855,22.3389 5.04541,9.7377 9.10407,19.6463 12.46412,29.4437 4.82402,14.0724 8.26287,27.9373 10.73802,41.2535 2.47515,13.3162 3.98785,26.0832 4.89462,38.0425 v 1e-4 c 1.21573,15.9985 1.34016,30.5863 0.93424,43.4181 -0.40592,12.8318 -1.34066,23.9097 -2.36925,32.9554 -1.02859,9.0457 -2.15017,16.0619 -3.07263,20.8037 -0.92246,4.7418 -1.64405,7.2113 -2.03349,7.1607 -0.38944,-0.051 -0.42611,-2.6182 -0.23483,-7.4253 0.19128,-4.8071 0.60857,-11.856 0.97164,-20.8757 0.36307,-9.0197 0.67104,-20.0126 0.50698,-32.6779 -0.16406,-12.6653 -0.80145,-27.0045 -2.45117,-42.6576 -1.23562,-11.7052 -3.01946,-24.1518 -5.68752,-37.0695 -2.66806,-12.9177 -6.22129,-26.3059 -11.06434,-39.8206 -3.36838,-9.4037 -7.34909,-18.845 -12.2171,-28.0362 -3.82317,-7.2103 -8.14523,-14.258 -13.25579,-20.7627 -3.88486,-4.9226 -8.10787,-9.5352 -12.96994,-13.1995 -3.55166,-2.6097 -7.1944,-4.8329 -10.92244,-5.5345 -1.18598,-0.2362 -2.34658,-0.3541 -3.42083,-0.2819 -0.21817,0.015 -0.4326,0.037 -0.6428,0.068 -1.14728,0.1528 -2.27067,0.5263 -3.23325,1.0917 -1.05085,0.5879 -2.02795,1.4995 -2.90504,2.5665 -1.05218,1.2804 -1.89779,2.8693 -2.63164,4.6025 -2.06849,4.8512 -2.70278,10.479 -2.96359,16.2423 -0.32887,8.565 0.61993,17.1545 2.00771,25.6074 1.99484,12.0674 5.02626,23.7034 8.41453,34.8817 4.77964,15.7555 10.3226,30.5284 15.93861,44.2874 7.45132,18.2565 15.01146,34.6973 21.99649,49.1508 6.98503,14.4535 13.39499,26.9198 18.71498,37.1728 5.31999,10.253 9.5525,18.2928 12.33046,23.8397 2.77796,5.5469 4.10347,8.6014 3.71888,8.8305 z"
       id="path76"
       style="fill:#98c9ff;fill-rule:evenodd;stroke:#98c9ff;stroke-width:6"
       inkscape:connector-curvature="0" />
  </g>
  <g
     transform="matrix(3.6261076,0,0,3.6261076,1464.7782,3226.8722)"
     id="surface1">
    <path
       d="m 222.8125,107.76953 25.59375,0 0,25.94922 12.94922,0 c 5.97656,0 12.12109,-1.05469 17.78515,-2.95703 2.78125,-0.9375 5.89844,-2.23828 8.64454,-3.87109 -3.61329,-4.67969 -5.45704,-10.58985 -6.00391,-16.41016 -0.73438,-7.92188 0.87109,-18.234376 6.28125,-24.429689 l 2.6875,-3.085937 3.20703,2.554687 c 8.07422,6.433594 14.86328,15.417969 16.05859,25.664059 9.72266,-2.83203 21.13282,-2.16406 29.70313,2.74219 l 3.51172,2.00781 -1.85156,3.58204 c -7.24219,14.02343 -22.39063,18.37109 -37.20313,17.59765 -22.16016,54.74219 -70.40625,80.65625 -128.90625,80.65625 -30.22656,0 -57.95703,-11.20312 -73.74609,-37.78906 l -0.25781,-0.44141 -2.300786,-4.64062 c -5.335938,-11.70703 -7.109375,-24.53125 -5.90625,-37.33985 l 0.359375,-3.83984 21.890621,0 0,-25.94922 25.59375,0 0,-25.382811 51.19141,0 0,-25.386719 30.71875,0 0,50.76953"
       id="path3163"
       style="fill:#33454f;fill-opacity:1;fill-rule:evenodd;stroke:none" />
    <path
       d="m 305.74609,117.37109 c 1.71485,-13.23046 -8.26562,-23.62109 -14.46093,-28.550778 -7.13282,8.175782 -8.24219,29.613278 2.94921,38.640628 -6.24609,5.5 -19.40625,10.48828 -32.8789,10.48828 l -164.050782,0 c -1.308594,13.94922 1.160156,26.79687 6.800782,37.79687 l 1.86719,3.38282 c 1.17968,1.99218 2.47265,3.91015 3.86718,5.75781 6.7461,0.42578 12.96485,0.57422 18.64844,0.45312 0.004,0 0.004,0 0.004,0 11.17968,-0.24609 20.30078,-1.55468 27.21875,-3.93359 1.03125,-0.35547 2.14843,0.19141 2.5039,1.20703 0.35938,1.01953 -0.1875,2.13672 -1.21484,2.48828 -0.91797,0.31641 -1.87891,0.60938 -2.86719,0.89453 0,0 -0.004,0 -0.004,0 -5.44532,1.53907 -11.28125,2.57813 -18.8125,3.03516 0.44531,0.008 -0.46485,0.0703 -0.46875,0.0703 -0.25391,0.0156 -0.57813,0.0508 -0.83594,0.0625 -2.96485,0.16797 -6.16406,0.20313 -9.43359,0.20313 -3.57813,0 -7.10157,-0.0703 -11.03907,-0.26563 l -0.10156,0.0625 c 13.66797,15.23828 35.03906,24.375 61.83203,24.375 56.69531,0 104.78516,-24.92187 126.07813,-80.88281 15.10937,1.53516 29.63281,-2.28125 36.23828,-15.07031 -10.52344,-6.01953 -24.05469,-4.09766 -31.83985,-0.21485"
       id="path3165"
       style="fill:#47abde;fill-opacity:1;fill-rule:nonzero;stroke:none" />
    <path
       d="m 305.74609,117.37109 c 1.71485,-13.23046 -8.26562,-23.62109 -14.46093,-28.550778 -7.13282,8.175782 -8.24219,29.613278 2.94921,38.640628 -6.24609,5.5 -19.40625,10.48828 -32.8789,10.48828 l -154.33594,0 c -0.67187,21.36328 7.32422,37.58203 21.46875,47.39062 0.004,0 0.004,0 0.004,0 11.17968,-0.24609 20.30078,-1.55468 27.21875,-3.93359 1.03125,-0.35547 2.14843,0.19141 2.5039,1.20703 0.35938,1.01953 -0.1875,2.13672 -1.21484,2.48828 -0.91797,0.31641 -1.87891,0.60938 -2.86719,0.89453 0,0 -0.004,0 -0.004,0 -5.44532,1.53907 -11.78125,2.71094 -19.3125,3.16797 -0.008,0 -0.1836,-0.17187 -0.1836,-0.17187 19.29297,9.8164 47.26953,9.78125 79.35156,-2.4375 35.96485,-13.70313 69.4336,-39.8125 92.78516,-69.67188 -0.34766,0.16407 -0.69531,0.32032 -1.02344,0.48828"
       id="path3167"
       style="fill:#54bdee;fill-opacity:1;fill-rule:nonzero;stroke:none" />
    <path
       d="m 97.613281,154.89844 c 1.019531,7.47656 3.222659,14.47265 6.492189,20.84765 l 1.86719,3.38282 c 1.17968,1.99218 2.47265,3.91015 3.86718,5.75781 6.7461,0.42578 12.96485,0.57422 18.65235,0.45312 11.17968,-0.24609 20.30078,-1.55468 27.21875,-3.93359 1.03125,-0.35547 2.14843,0.19141 2.5039,1.20703 0.35938,1.01953 -0.1875,2.13672 -1.21484,2.48828 -0.91797,0.31641 -1.87891,0.60938 -2.86719,0.89453 0,0 -0.004,0 -0.004,0 -5.44532,1.53907 -11.75,2.64453 -19.28125,3.10547 -0.25391,0.0156 -0.70704,0.0195 -0.96875,0.0312 -2.96094,0.16406 -6.12891,0.26563 -9.39844,0.26563 -3.57813,0 -7.23828,-0.0664 -11.17578,-0.26563 13.66797,15.23828 35.17187,24.40625 61.96484,24.40625 48.53906,0 90.76172,-18.26953 115.27344,-58.64062 l -192.929689,0"
       id="path3169"
       style="fill:#388abd;fill-opacity:1;fill-rule:nonzero;stroke:none" />
    <path
       d="m 108.49609,154.89844 c 2.90235,13.125 9.875,23.42187 19.9961,30.4414 11.17968,-0.24609 20.30078,-1.55468 27.21875,-3.93359 1.03125,-0.35547 2.14843,0.19141 2.5039,1.20703 0.35938,1.01953 -0.1875,2.13672 -1.21484,2.48828 -0.91797,0.31641 -1.87891,0.60938 -2.86719,0.89453 0,0 -0.004,0 -0.004,0 -5.44532,1.53907 -11.88282,2.64453 -19.41407,3.10547 19.29297,9.8125 47.19141,9.67188 79.26953,-2.54687 19.40235,-7.39453 38.07422,-18.39844 54.83204,-31.65625 l -160.32032,0"
       id="path3171"
       style="fill:#3d9cca;fill-opacity:1;fill-rule:nonzero;stroke:none" />
    <path
       d="m 119.57422,112 22.17969,0 0,22 -22.17969,0 z m 1.84375,1.83594 1.75391,0 0,18.33593 -1.75391,0 z m 3.29297,0 1.82031,0 0,18.33593 -1.82031,0 z m 3.35937,0 1.82422,0 0,18.33593 -1.82422,0 z m 3.36328,0 1.82422,0 0,18.33593 -1.82422,0 z m 3.35938,0 1.82031,0 0,18.33593 -1.82031,0 z m 3.36328,0 1.75391,0 0,18.33593 -1.75391,0 0,-18.33593"
       id="path3173"
       style="fill:#45b0d7;fill-opacity:1;fill-rule:evenodd;stroke:none" />
    <path
       d="m 145.16797,86.613281 22.18359,0 0,22.003909 -22.18359,0 z m 1.84765,1.835938 1.75,0 0,18.332031 -1.75,0 z m 3.29688,0 1.82031,0 0,18.332031 -1.82031,0 z m 3.35156,0 1.82422,0 0,18.332031 -1.82422,0 z m 3.36719,0 1.82031,0 0,18.332031 -1.82031,0 z m 3.36328,0 1.82031,0 0,18.332031 -1.82031,0 z m 3.35938,0 1.7539,0 0,18.332031 -1.7539,0 0,-18.332031"
       id="path3175"
       style="fill:#45b0d7;fill-opacity:1;fill-rule:evenodd;stroke:none" />
    <path
       d="m 145.16797,112 22.18359,0 0,22 -22.18359,0 z m 1.84765,1.83594 1.75,0 0,18.33593 -1.75,0 z m 3.29688,0 1.82031,0 0,18.33593 -1.82031,0 z m 3.35156,0 1.82422,0 0,18.33593 -1.82422,0 z m 3.36719,0 1.82031,0 0,18.33593 -1.82031,0 z m 3.36328,0 1.82031,0 0,18.33593 -1.82031,0 z m 3.35938,0 1.7539,0 0,18.33593 -1.7539,0 0,-18.33593"
       id="path3177"
       style="fill:#57c7f0;fill-opacity:1;fill-rule:evenodd;stroke:none" />
    <path
       d="m 170.76562,112 22.1875,0 0,22 -22.1875,0 z m 1.84766,1.83594 1.75,0 0,18.33593 -1.75,0 z m 3.29297,0 1.82031,0 0,18.33593 -1.82031,0 z m 3.36328,0 1.82031,0 0,18.33593 -1.82031,0 z m 3.35938,0 1.82031,0 0,18.33593 -1.82031,0 z m 3.35937,0 1.82422,0 0,18.33593 -1.82422,0 z m 3.36328,0 1.75,0 0,18.33593 -1.75,0 0,-18.33593"
       id="path3179"
       style="fill:#45b0d7;fill-opacity:1;fill-rule:evenodd;stroke:none" />
    <path
       d="m 170.76562,86.613281 22.1875,0 0,22.003909 -22.1875,0 z m 1.84766,1.835938 1.75,0 0,18.332031 -1.75,0 z m 3.29297,0 1.82031,0 0,18.332031 -1.82031,0 z m 3.36328,0 1.82031,0 0,18.332031 -1.82031,0 z m 3.35938,0 1.82031,0 0,18.332031 -1.82031,0 z m 3.35937,0 1.82422,0 0,18.332031 -1.82422,0 z m 3.36328,0 1.75,0 0,18.332031 -1.75,0 0,-18.332031"
       id="path3181"
       style="fill:#57c7f0;fill-opacity:1;fill-rule:evenodd;stroke:none" />
    <path
       d="m 196.36328,112 22.1875,0 0,22 -22.1875,0 z m 1.84766,1.83594 1.7539,0 0,18.33593 -1.7539,0 z m 3.29297,0 1.82031,0 0,18.33593 -1.82031,0 z m 3.36328,0 1.82031,0 0,18.33593 -1.82031,0 z m 3.35937,0 1.82031,0 0,18.33593 -1.82031,0 z m 3.36328,0 1.82032,0 0,18.33593 -1.82032,0 z m 3.35938,0 1.7539,0 0,18.33593 -1.7539,0 0,-18.33593"
       id="path3183"
       style="fill:#57c7f0;fill-opacity:1;fill-rule:evenodd;stroke:none" />
    <path
       d="m 196.36328,86.613281 22.1875,0 0,22.003909 -22.1875,0 z m 1.84766,1.835938 1.7539,0 0,18.332031 -1.7539,0 z m 3.29297,0 1.82031,0 0,18.332031 -1.82031,0 z m 3.36328,0 1.82031,0 0,18.332031 -1.82031,0 z m 3.35937,0 1.82031,0 0,18.332031 -1.82031,0 z m 3.36328,0 1.82032,0 0,18.332031 -1.82032,0 z m 3.35938,0 1.7539,0 0,18.332031 -1.7539,0 0,-18.332031"
       id="path3185"
       style="fill:#45b0d7;fill-opacity:1;fill-rule:evenodd;stroke:none" />
    <path
       d="m 196.36328,61.230469 22.1875,0 0,22 -22.1875,0 z m 1.84766,1.832031 1.7539,0 0,18.335938 -1.7539,0 z m 3.29297,0 1.82031,0 0,18.335938 -1.82031,0 z m 3.36328,0 1.82031,0 0,18.335938 -1.82031,0 z m 3.35937,0 1.82031,0 0,18.335938 -1.82031,0 z m 3.36328,0 1.82032,0 0,18.335938 -1.82032,0 z m 3.35938,0 1.7539,0 0,18.335938 -1.7539,0 0,-18.335938"
       id="path3187"
       style="fill:#57c7f0;fill-opacity:1;fill-rule:evenodd;stroke:none" />
    <path
       d="m 221.96094,112 22.18359,0 0,22 -22.18359,0 z m 1.84765,1.83594 1.75,0 0,18.33593 -1.75,0 z m 3.29297,0 1.81641,0 0,18.33593 -1.81641,0 z m 3.35938,0 1.82031,0 0,18.33593 -1.82031,0 z m 3.35937,0 1.82031,0 0,18.33593 -1.82031,0 z m 3.36328,0 1.82032,0 0,18.33593 -1.82032,0 z m 3.36328,0 1.75,0 0,18.33593 -1.75,0 0,-18.33593"
       id="path3189"
       style="fill:#45b0d7;fill-opacity:1;fill-rule:evenodd;stroke:none" />
    <path
       d="m 165.96484,169.67187 c 3.38282,0 6.1211,2.71875 6.1211,6.06641 0,3.35547 -2.73828,6.07031 -6.1211,6.07031 -3.38281,0 -6.11718,-2.71484 -6.11718,-6.07031 0,-3.34766 2.73437,-6.06641 6.11718,-6.06641"
       id="path3191"
       style="fill:#d7f0f3;fill-opacity:1;fill-rule:evenodd;stroke:none" />
    <path
       d="m 165.96484,171.39062 c 0.5586,0 1.09375,0.10938 1.58594,0.29688 -0.53125,0.30469 -0.89453,0.87891 -0.89453,1.53516 0,0.98046 0.80078,1.77343 1.78906,1.77343 0.67578,0 1.26563,-0.37109 1.56641,-0.92578 0.21875,0.51563 0.33594,1.07813 0.33594,1.66797 0,2.40234 -1.96094,4.35156 -4.38282,4.35156 -2.41797,0 -4.38281,-1.94922 -4.38281,-4.35156 0,-2.39844 1.96484,-4.34766 4.38281,-4.34766"
       id="path3193"
       style="fill:#33454f;fill-opacity:1;fill-rule:evenodd;stroke:none" />
    <path
       d="m 57.710938,157.09375 284.703122,0 c -6.20312,-1.5625 -19.61328,-3.66406 -17.40234,-11.72266 -11.27344,12.9375 -38.45703,9.07422 -45.31641,2.69532 -7.63672,10.99218 -52.11328,6.8125 -55.21484,-1.75 -9.57813,11.14843 -39.25391,11.14843 -48.83594,0 -3.10156,8.5625 -47.57422,12.74218 -55.21484,1.75 -6.86328,6.3789 -34.042971,10.24218 -45.316409,-2.69532 2.210938,8.0586 -11.203125,10.16016 -17.402343,11.72266"
       id="path3195"
       style="fill:#33454f;fill-opacity:1;fill-rule:evenodd;stroke:none" />
    <path
       d="m 182.23437,213.41016 c -15.15625,-7.13672 -23.47656,-16.82813 -28.10546,-27.41407 -5.63282,1.59375 -12.39844,2.60938 -20.26172,3.04688 -2.96485,0.16797 -6.07813,0.25 -9.34766,0.25 -3.76953,0 -7.74219,-0.11328 -11.91015,-0.32813 13.89843,13.77344 30.99609,24.38282 62.66015,24.57422 2.33203,0 4.65625,-0.043 6.96484,-0.1289"
       id="path3197"
       style="fill:#bfe1e1;fill-opacity:1;fill-rule:nonzero;stroke:none" />
    <path
       d="m 159.75781,195.76172 c -2.09765,-2.82422 -4.1289,-6.3711 -5.625,-9.76563 -5.63672,1.59375 -12.40234,2.60938 -20.26562,3.04688 5.39843,2.91015 13.1289,5.60156 25.89062,6.71875"
       id="path3199"
       style="fill:#d7f0f3;fill-opacity:1;fill-rule:nonzero;stroke:none" />
    <path
       d="m 412.07031,127.96875 0,-24.71094 c 0,-3.24609 2.04297,-5.859372 5.4336,-5.859372 l 0.9375,0 c 3.39062,0 5.42968,2.613282 5.42968,5.859372 l 0,52.02344 c 0,12.6875 -6.32031,22.78125 -17.33203,29.21484 C 401.42969,187.46875 395.78516,189 389.86719,189 l -2.33985,0 c -12.79297,0 -22.96093,-6.26953 -29.45312,-17.1875 -3.01563,-5.06641 -4.54688,-10.65625 -4.54688,-16.53125 l 0,-2.32031 c 0,-12.6875 6.32032,-22.77735 17.32813,-29.21875 5.10937,-2.99219 10.74609,-4.51172 16.67187,-4.51172 l 2.33985,0 c 8.65625,0 16.00781,3.32812 22.20312,8.73828 z m -46.74609,26.15234 c 0,9.16407 4.48047,16.05078 12.58203,20.44922 3.26953,1.77344 6.82422,2.72656 10.5625,2.72656 9.07031,0 15.79687,-4.24218 20.4375,-11.86718 2.15625,-3.54297 3.16406,-7.42188 3.16406,-11.54688 0,-7.94531 -3.79297,-14.14453 -10.25,-18.74609 -3.91015,-2.79688 -8.3164,-4.19531 -13.12109,-4.19531 -9.88672,0 -17.00391,4.95312 -21.27344,13.7539 -1.44141,2.97266 -2.10156,6.12891 -2.10156,9.42578 z m 99.48437,-34.89062 1.63672,0 c 13.67188,0 24.07031,6.57812 30.66016,18.41406 2.63281,4.73438 4.04297,9.90234 4.04297,15.31641 l 0,2.32031 c 0,12.6875 -6.3086,22.79687 -17.33594,29.21484 C 478.70312,187.46484 473.0625,189 467.14453,189 l -2.33594,0 c -12.79297,0 -22.96093,-6.26953 -29.45312,-17.1875 -3.01563,-5.06641 -4.55078,-10.65625 -4.55078,-16.53125 l 0,-2.32031 c 0,-12.6875 6.34765,-22.7461 17.32031,-29.21875 5.10547,-3.00781 10.75391,-4.51172 16.68359,-4.51172 z m -22.20703,34.89062 c 0,8.89453 4.40625,15.4375 11.98438,20.03516 3.55468,2.16406 7.47265,3.14062 11.63281,3.14062 8.85937,0 15.41016,-4.45312 19.97266,-11.875 2.17187,-3.53515 3.15625,-7.42187 3.15625,-11.53906 0,-8.27734 -4.01563,-14.58984 -10.88672,-19.17187 -3.76172,-2.51172 -7.94922,-3.76953 -12.48438,-3.76953 -9.88672,0 -17,4.95312 -21.26953,13.7539 -1.44531,2.97266 -2.10547,6.12891 -2.10547,9.42578 z M 550.20312,131.875 c -1.77734,-0.82422 -5.11328,-1.10156 -7.03906,-1.17188 -9.85937,-0.36718 -16.99219,5.13672 -21.17969,13.76172 -1.44531,2.97266 -2.09765,6.125 -2.09765,9.41797 0,10.02344 5.30078,17.04297 14.32812,21.32031 3.29297,1.5586 7.54688,1.85547 11.14844,1.85547 3.16797,0 7.64844,-1.92187 10.45703,-3.24609 l 0.48828,-0.22656 2.17969,0 0.24219,0.043 c 2.68359,0.55859 4.70703,2.24218 4.70703,5.10546 l 0,1.16016 c 0,7.12109 -13.12891,8.75781 -18.14063,9.10156 -17.67968,1.21485 -30.90234,-8.41406 -35.94531,-25.14062 -0.875,-2.90625 -1.26953,-5.78906 -1.26953,-8.8125 l 0,-2.32031 c 0,-12.6875 6.34766,-22.74219 17.32422,-29.20703 5.10937,-3.00391 10.75,-4.51563 16.67969,-4.51563 l 2.33984,0 c 6.28516,0 12.08203,1.76953 17.27344,5.28906 l 0.42969,0.29297 0.26562,0.4375 c 0.55859,0.92188 1.04297,1.99219 1.04297,3.08984 l 0,1.15625 c 0,2.98829 -2.25391,4.59375 -4.97266,5.11329 l -0.22656,0.0352 -0.69531,0 c -1.76172,0 -5.76563,-1.80469 -7.33985,-2.53906 z m 38.28125,7.92578 c 4.58204,-4.55078 9.1836,-9.09375 13.83594,-13.57031 1.29297,-1.25 6.20313,-6.53516 8.13281,-6.53516 l 2.11719,0 0.23828,0.0508 c 2.69532,0.55469 4.71094,2.24219 4.71094,5.10938 l 0,1.16406 c 0,1.95313 -2.3125,4.23047 -3.58594,5.57031 -2.71093,2.84766 -5.5664,5.60157 -8.33984,8.39453 l -14.25391,14.35157 c 6.13282,6.10156 12.26563,12.21093 18.35547,18.35937 1.6836,1.69922 3.3711,3.40235 5.03125,5.12891 0.58203,0.60937 1.45313,1.37109 1.94141,2.21484 0.52734,0.80078 0.85156,1.69531 0.85156,2.65235 l 0,1.20312 -0.0703,0.28125 C 616.78516,186.84766 615.07812,189 612.09375,189 l -0.9375,0 c -1.95313,0 -4.15625,-2.19141 -5.49219,-3.44141 -2.75781,-2.57812 -5.42187,-5.28906 -8.125,-7.91797 l -9.05469,-8.82031 0,14.09766 c 0,3.24219 -2.05078,5.85156 -5.4375,5.85156 l -0.93359,0 c -3.38281,0 -5.42969,-2.60937 -5.42969,-5.85156 l 0,-79.43359 c 0,-3.25 2.04688,-5.847661 5.42969,-5.847661 l 0.93359,0 c 3.38672,0 5.4375,2.597661 5.4375,5.847661 z m 147.07422,-20.10547 1.17188,0 c 3.53906,0 5.90234,2.36719 5.90234,5.85547 0,4.84766 -4.66797,6.08594 -8.70703,6.08594 -5.30469,0 -10.36328,3.17969 -14.01953,6.74609 -4.55469,4.46094 -6.54688,10.16016 -6.54688,16.4336 l 0,28.32812 c 0,3.25 -2.04687,5.85547 -5.43359,5.85547 l -0.92969,0 c -3.39453,0 -5.4375,-2.60547 -5.4375,-5.85547 l 0,-29.95703 c 0,-11.50391 5.64453,-20.89063 15.0586,-27.48047 5.625,-3.9375 12.05859,-6.01172 18.9414,-6.01172 z m -83.87109,56.14453 c 4.29297,1.48828 9.19141,1.27735 13.59375,0.51563 2.25391,-0.94922 8.01953,-3.44141 10.13672,-3.08203 l 0.33594,0.0586 0.30078,0.14844 c 1.29297,0.625 2.53125,1.5039 3.1914,2.80859 1.54688,3.0625 0.80078,6.14063 -2.23047,7.875 l -1.00781,0.58203 c -11.19531,6.40625 -23.10156,5.51953 -34.26172,-0.46484 -5.33203,-2.85938 -9.41015,-7.10938 -12.42578,-12.28516 l -0.70312,-1.20703 c -7.1836,-12.33984 -6.21485,-25.32422 1.89062,-37.05859 2.79688,-4.05469 6.45313,-7.19141 10.72656,-9.64063 l 1.61719,-0.92968 c 10.54297,-6.03125 21.83985,-5.6211 32.66797,-0.32422 5.82031,2.84765 10.53516,7.09765 13.78516,12.67578 l 0.58593,1.0039 c 2.35938,4.0625 -0.69921,7.59375 -3.85546,10.01172 -3.66407,2.80078 -7.36329,6.17578 -10.875,9.1836 -7.83204,6.70312 -15.64454,13.42187 -23.47266,20.1289 z m -10.13672,-7.05859 c 8.76172,-7.44531 17.51953,-14.89844 26.25391,-22.37891 2.98047,-2.55078 6.2539,-5.19531 9.21875,-7.88281 -2.37891,-2.96484 -6.34766,-5.10937 -9.71875,-6.38281 -6.8086,-2.57422 -13.51563,-1.70703 -19.75782,1.86328 -8.17187,4.67578 -11.65625,12.12891 -11.35156,21.40234 0.125,3.64844 1.11328,7.16407 3.07031,10.27344 0.6875,1.09766 1.45704,2.125 2.28516,3.10547"
       id="path3201"
       style="fill:#33454f;fill-opacity:1;fill-rule:evenodd;stroke:none" />
  </g>
  <text
     x="498.63828"
     y="2681.2668"
     id="text3230"
     xml:space="preserve"
     style="font-size:323.25177002px;font-style:normal;font-variant:normal;font-weight:normal;font-stretch:normal;line-height:125%;letter-spacing:0px;word-spacing:0px;fill:#000000;fill-opacity:1;stroke:none;font-family:DejaVu Sans Mono;-inkscape-font-specification:DejaVu Sans Mono"
     sodipodi:linespacing="125%"><tspan
       x="498.63828"
       y="2681.2668"
       id="tspan3232">refactor</tspan><tspan
       x="498.63828"
       y="3085.3315"
       id="tspan3234">  lxplus</tspan></text>
</svg>
